<?xml version="1.0" encoding="utf-8"?>
<!-- Generator: Adobe Illustrator 28.0.0, SVG Export Plug-In . SVG Version: 6.00 Build 0)  -->
<svg version="1.1" id="Layer_1" xmlns:serif="http://www.serif.com/"
	 xmlns="http://www.w3.org/2000/svg" xmlns:xlink="http://www.w3.org/1999/xlink" x="0px" y="0px" viewBox="0 0 921.6 921.6"
	 style="enable-background:new 0 0 921.6 921.6;" xml:space="preserve">
<style type="text/css">
	.st0{fill:#FFDA97;}
</style>
<g transform="matrix(1.01619,0,0,1.01619,44,43.8384)">
	<path class="st0" d="M410.2-43.1c-123.2,0-138.6,0.5-187,2.7c-48.3,2.2-81.2,9.9-110.1,21.1C83.3-7.8,58,7.8,32.8,33
		s-40.7,50.5-52.3,80.3c-11.2,28.8-18.9,61.8-21.1,110.1c-2.2,48.4-2.7,63.8-2.7,187s0.5,138.6,2.7,187
		c2.2,48.3,9.9,81.2,21.1,110.1c11.6,29.8,27.1,55.1,52.3,80.3s50.5,40.7,80.3,52.3c28.8,11.2,61.8,18.9,110.1,21.1
		c48.4,2.2,63.8,2.7,187,2.7s138.6-0.5,187-2.7c48.3-2.2,81.2-9.9,110.1-21.1c29.8-11.6,55.1-27.1,80.3-52.3s40.7-50.5,52.3-80.3
		c11.2-28.8,18.9-61.8,21.1-110.1c2.2-48.4,2.7-63.8,2.7-187s-0.5-138.6-2.7-187c-2.2-48.3-9.9-81.2-21.1-110.1
		c-11.6-29.8-27.1-55.1-52.3-80.3C762.3,7.8,737-7.8,707.2-19.3c-28.8-11.2-61.8-18.9-110.1-21.1C548.8-42.6,533.3-43.1,410.2-43.1z
		 M410.2,38.6c121.1,0,135.4,0.5,183.2,2.6c44.2,2,68.2,9.4,84.2,15.6c21.2,8.2,36.3,18.1,52.1,33.9c15.9,15.9,25.7,31,33.9,52.1
		c6.2,16,13.6,40,15.6,84.2c2.2,47.8,2.6,62.2,2.6,183.2c0,121.1-0.5,135.4-2.6,183.2c-2,44.2-9.4,68.2-15.6,84.2
		c-8.2,21.2-18.1,36.3-33.9,52.1c-15.9,15.9-31,25.7-52.1,33.9c-16,6.2-40,13.6-84.2,15.6c-47.8,2.2-62.1,2.6-183.2,2.6
		s-135.4-0.5-183.2-2.6c-44.2-2-68.2-9.4-84.2-15.6c-21.2-8.2-36.3-18.1-52.1-33.9c-15.9-15.9-25.7-31-33.9-52.1
		c-6.2-16-13.6-40-15.6-84.2c-2.2-47.8-2.6-62.2-2.6-183.2c0-121.1,0.5-135.4,2.6-183.2c2-44.2,9.4-68.2,15.6-84.2
		c8.2-21.2,18.1-36.3,33.9-52.1c15.9-15.9,31-25.7,52.1-33.9c16-6.2,40-13.6,84.2-15.6C274.7,39,289.1,38.6,410.2,38.6z"/>
	<path class="st0" d="M410.2,561.5c-83.5,0-151.2-67.7-151.2-151.2s67.7-151.2,151.2-151.2s151.2,67.7,151.2,151.2
		C561.3,493.8,493.6,561.5,410.2,561.5z M410.2,177.5c-128.6,0-232.9,104.3-232.9,232.9s104.3,232.9,232.9,232.9
		S643.1,539,643.1,410.4C643,281.7,538.8,177.5,410.2,177.5z"/>
	<path class="st0" d="M706.6,168.3c0,30.1-24.4,54.4-54.4,54.4c-30.1,0-54.4-24.4-54.4-54.4s24.4-54.4,54.4-54.4
		C682.3,113.8,706.6,138.2,706.6,168.3z"/>
</g>
</svg>
