<?xml version="1.0" encoding="utf-8"?>
<!-- Generator: Adobe Illustrator 28.0.0, SVG Export Plug-In . SVG Version: 6.00 Build 0)  -->
<svg version="1.1" id="Layer_1" xmlns:serif="http://www.serif.com/"
	 xmlns="http://www.w3.org/2000/svg" xmlns:xlink="http://www.w3.org/1999/xlink" x="0px" y="0px" viewBox="0 0 1080.2 1080.3"
	 style="enable-background:new 0 0 1080.2 1080.3;" xml:space="preserve">
<style type="text/css">
	.st0{fill:#FFDA97;}
</style>
<path class="st0" d="M1000.3,0H79.7C35.7,0,0,34.9,0,77.9v924.4c0,43,35.7,78,79.7,78h920.7c44,0,79.9-34.9,79.9-78V77.9
	C1080.2,34.9,1044.4,0,1000.3,0z M320.4,920.5H160.1V405h160.4V920.5z M240.3,334.6c-51.5,0-93-41.6-93-92.9
	c0-51.3,41.5-92.9,93-92.9c51.3,0,92.9,41.6,92.9,92.9C333.2,292.9,291.5,334.6,240.3,334.6z M920.5,920.5H760.3V669.8
	c0-59.8-1-136.7-83.3-136.7c-83.4,0-96.1,65.2-96.1,132.4v255H421V405h153.6v70.5h2.2c21.4-40.5,73.6-83.3,151.6-83.3
	c162.2,0,192.2,106.8,192.2,245.6V920.5z"/>
</svg>
