<?xml version="1.0" encoding="UTF-8"?><svg id="Layer_1" xmlns="http://www.w3.org/2000/svg" viewBox="0 0 32 32"><defs><style>.cls-1{fill:#331b12;}.cls-1,.cls-2{stroke-width:0px;}.cls-2{fill:#f59098;}</style></defs><rect class="cls-2" width="32" height="32" rx="3.27" ry="3.27"/><rect class="cls-1" x="20.8" y="29.5" width="1.6" height="1.5"/><rect class="cls-1" x="19.2" y="29.5" width="1.6" height="1.5"/><rect class="cls-1" x="14.4" y="29.5" width="1.6" height="1.5"/><rect class="cls-1" x="12.8" y="29.5" width="1.6" height="1.5"/><rect class="cls-1" x="11.2" y="29.5" width="1.6" height="1.5"/><rect class="cls-1" x="9.6" y="29.5" width="1.6" height="1.5"/><rect class="cls-1" x="8" y="29.5" width="1.6" height="1.5"/><rect class="cls-1" x="6.4" y="29.5" width="1.6" height="1.5"/><rect class="cls-1" x="20.8" y="28" width="1.6" height="1.5"/><rect class="cls-1" x="17.6" y="28" width="1.6" height="1.5"/><rect class="cls-1" x="16" y="28" width="1.6" height="1.5"/><rect class="cls-1" x="14.4" y="28" width="1.6" height="1.5"/><rect class="cls-1" x="6.4" y="28" width="1.6" height="1.5"/><rect class="cls-1" x="4.8" y="28" width="1.6" height="1.5"/><rect class="cls-1" x="3.2" y="28" width="1.6" height="1.5"/><rect class="cls-1" x="20.8" y="26.5" width="1.6" height="1.5"/><rect class="cls-1" x="17.6" y="26.5" width="1.6" height="1.5"/><rect class="cls-1" x="3.2" y="26.5" width="1.6" height="1.5"/><rect class="cls-1" x="1.6" y="26.5" width="1.6" height="1.5"/><rect class="cls-1" x="19.2" y="25" width="1.6" height="1.5"/><rect class="cls-1" x="17.6" y="25" width="1.6" height="1.5"/><rect class="cls-1" x="8" y="25" width="1.6" height="1.5"/><rect class="cls-1" x="6.4" y="25" width="1.6" height="1.5"/><rect class="cls-1" x="8" y="23.5" width="1.6" height="1.5"/><rect class="cls-1" x="1.6" y="25" width="1.6" height="1.5"/><rect class="cls-1" y="25" width="1.6" height="1.5"/><rect class="cls-1" x="19.2" y="23.5" width="1.6" height="1.5"/><rect class="cls-1" x="8" y="23.5" width="1.6" height="1.5"/><rect class="cls-1" y="23.5" width="1.6" height="1.5"/><rect class="cls-1" x="20.8" y="22" width="1.6" height="1.5"/><rect class="cls-1" x="6.4" y="22" width="1.6" height="1.5"/><rect class="cls-1" x="4.8" y="22" width="1.6" height="1.5"/><rect class="cls-1" y="22" width="1.6" height="1.5"/><rect class="cls-1" x="20.8" y="20.5" width="1.6" height="1.5"/><rect class="cls-1" x="6.4" y="20.5" width="1.6" height="1.5"/><rect class="cls-1" x="1.6" y="20.5" width="1.6" height="1.5"/><rect class="cls-1" y="20.5" width="1.6" height="1.5"/><rect class="cls-1" x="22.4" y="19" width="1.6" height="1.5"/><rect class="cls-1" x="20.8" y="19" width="1.6" height="1.5"/><rect class="cls-1" x="1.6" y="19" width="1.6" height="1.5"/><rect class="cls-1" x="22.4" y="17.5" width="1.6" height="1.5"/><rect class="cls-1" x="16" y="17.5" width="1.6" height="1.5"/><rect class="cls-1" x="14.4" y="17.5" width="1.6" height="1.5"/><rect class="cls-1" x="12.8" y="17.5" width="1.6" height="1.5"/><rect class="cls-1" x="11.2" y="17.5" width="1.6" height="1.5"/><rect class="cls-1" x="9.6" y="17.5" width="1.6" height="1.5"/><rect class="cls-1" x="8" y="17.5" width="1.6" height="1.5"/><rect class="cls-1" x="6.4" y="17.5" width="1.6" height="1.5"/><rect class="cls-1" x="4.8" y="17.5" width="1.6" height="1.5"/><rect class="cls-1" x="3.2" y="17.5" width="1.6" height="1.5"/><rect class="cls-1" x="22.4" y="16" width="1.6" height="1.5"/><rect class="cls-1" x="19.2" y="16" width="1.6" height="1.5"/><rect class="cls-1" x="17.6" y="16" width="1.6" height="1.5"/><rect class="cls-1" x="14.4" y="16" width="1.6" height="1.5"/><rect class="cls-1" x="11.2" y="16" width="1.6" height="1.5"/><rect class="cls-1" x="9.6" y="16" width="1.6" height="1.5"/><rect class="cls-1" x="22.4" y="14.5" width="1.6" height="1.5"/><rect class="cls-1" x="20.8" y="14.5" width="1.6" height="1.5"/><rect class="cls-1" x="14.4" y="14.5" width="1.6" height="1.5"/><rect class="cls-1" x="11.2" y="14.5" width="1.6" height="1.5"/><rect class="cls-1" x="24" y="13" width="1.6" height="1.5"/><rect class="cls-1" x="22.4" y="13" width="1.6" height="1.5"/><rect class="cls-1" x="14.4" y="13" width="1.6" height="1.5"/><rect class="cls-1" x="12.8" y="13" width="1.6" height="1.5"/><rect class="cls-1" x="24" y="11.5" width="1.6" height="1.5"/><rect class="cls-1" x="22.4" y="11.5" width="1.6" height="1.5"/><rect class="cls-1" x="24" y="10" width="1.6" height="1.5"/><rect class="cls-1" x="25.6" y="8.5" width="1.6" height="1.5"/><rect class="cls-1" x="24" y="8.5" width="1.6" height="1.5"/><rect class="cls-1" x="28.8" y="7" width="1.6" height="1.5"/><rect class="cls-1" x="27.2" y="7" width="1.6" height="1.5"/><rect class="cls-1" x="25.6" y="7" width="1.6" height="1.5"/><rect class="cls-1" x="24" y="7" width="1.6" height="1.5"/><rect class="cls-1" x="22.4" y="7" width="1.6" height="1.5"/><rect class="cls-1" x="20.8" y="7" width="1.6" height="1.5"/><rect class="cls-1" x="30.4" y="5.5" width="1.6" height="1.5"/><rect class="cls-1" x="25.6" y="5.5" width="1.6" height="1.5"/><rect class="cls-1" x="24" y="5.5" width="1.6" height="1.5"/><rect class="cls-1" x="20.8" y="5.5" width="1.6" height="1.5"/><rect class="cls-1" x="19.2" y="5.5" width="1.6" height="1.5"/><rect class="cls-1" x="30.4" y="4" width="1.6" height="1.5"/><rect class="cls-1" x="27.2" y="4" width="1.6" height="1.5"/><rect class="cls-1" x="24" y="4" width="1.6" height="1.5"/><rect class="cls-1" x="22.4" y="4" width="1.6" height="1.5"/><rect class="cls-1" x="19.2" y="4" width="1.6" height="1.5"/><rect class="cls-1" x="17.6" y="4" width="1.6" height="1.5"/><rect class="cls-1" x="28.8" y="2.5" width="1.6" height="1.5"/><rect class="cls-1" x="22.4" y="2.5" width="1.6" height="1.5"/><rect class="cls-1" x="20.8" y="2.5" width="1.6" height="1.5"/><rect class="cls-1" x="17.6" y="2.5" width="1.6" height="1.5"/><rect class="cls-1" x="20.8" y="1" width="1.6" height="1.5"/><rect class="cls-1" x="19.2" y="1" width="1.6" height="1.5"/><rect class="cls-1" x="17.6" y="1" width="1.6" height="1.5"/></svg>