<?xml version="1.0" encoding="UTF-8"?><svg id="Layer_1" xmlns="http://www.w3.org/2000/svg" viewBox="0 0 32 32"><defs><style>.cls-1{fill:#f59098;stroke-width:0px;}</style></defs><polygon class="cls-1" points="20.8 29.5 19.2 29.5 19.2 31 20.8 31 22.4 31 22.4 29.5 22.4 28 22.4 26.5 20.8 26.5 20.8 28 20.8 29.5"/><polygon class="cls-1" points="19.2 25 17.6 25 17.6 26.5 17.6 28 16 28 14.4 28 14.4 29.5 12.8 29.5 11.2 29.5 9.6 29.5 8 29.5 8 28 6.4 28 4.8 28 4.8 26.5 3.2 26.5 3.2 25 1.6 25 1.6 23.5 1.6 22 3.2 22 3.2 20.5 3.2 19 1.6 19 1.6 20.5 0 20.5 0 22 0 23.5 0 25 0 26.5 1.6 26.5 1.6 28 3.2 28 3.2 29.5 4.8 29.5 6.4 29.5 6.4 31 8 31 9.6 31 11.2 31 12.8 31 14.4 31 16 31 16 29.5 17.6 29.5 19.2 29.5 19.2 28 19.2 26.5 20.8 26.5 20.8 25 20.8 23.5 19.2 23.5 19.2 25"/><polygon class="cls-1" points="8 25 6.4 25 6.4 26.5 8 26.5 9.6 26.5 9.6 25 9.6 23.5 8 23.5 8 25"/><polygon class="cls-1" points="8 20.5 6.4 20.5 6.4 22 4.8 22 4.8 23.5 6.4 23.5 8 23.5 8 22 8 20.5"/><polygon class="cls-1" points="6.4 19 8 19 9.6 19 11.2 19 12.8 19 14.4 19 16 19 17.6 19 17.6 17.5 16 17.5 16 16 16 14.5 16 13 14.4 13 12.8 13 12.8 14.5 14.4 14.5 14.4 16 14.4 17.5 12.8 17.5 12.8 16 12.8 14.5 11.2 14.5 11.2 16 9.6 16 9.6 17.5 8 17.5 6.4 17.5 4.8 17.5 3.2 17.5 3.2 19 4.8 19 6.4 19"/><polygon class="cls-1" points="20.8 17.5 20.8 16 19.2 16 17.6 16 17.6 17.5 19.2 17.5 20.8 17.5"/><path class="cls-1" d="m27.2,7v-1.5h-1.6v-1.5h-1.6v-1.5h-1.6V1h-4.8v4.5h1.6v1.5h1.6v1.5h3.2v3h-1.6v3h-1.6v1.5h1.6v3h-1.6v4.5h1.6v-3h1.6v-6h1.6v-4.5h1.6v-1.5h3.2v-1.5h-3.2Zm-4.8,0v-1.5h-1.6v-1.5h-1.6v-1.5h1.6v1.5h1.6v1.5h1.6v1.5h-1.6Z"/><polygon class="cls-1" points="30.4 4 30.4 5.5 30.4 7 32 7 32 5.5 32 4 30.4 4"/><rect class="cls-1" x="27.2" y="4" width="1.6" height="1.5"/><rect class="cls-1" x="28.8" y="2.5" width="1.6" height="1.5"/></svg>